<svg width="25" height="25" viewBox="0 0 25 25" fill="none" xmlns="http://www.w3.org/2000/svg">
<path d="M6.75 4.125C6.75 3.2962 7.07924 2.50134 7.66529 1.91529C8.25134 1.32924 9.0462 1 9.875 1C10.7038 1 11.4987 1.32924 12.0847 1.91529C12.6708 2.50134 13 3.2962 13 4.125C13 3.2962 13.3292 2.50134 13.9153 1.91529C14.5013 1.32924 15.2962 1 16.125 1C16.9538 1 17.7487 1.32924 18.3347 1.91529C18.9208 2.50134 19.25 3.2962 19.25 4.125V4.1325C19.25 4.22 19.25 4.47 19.2025 4.75H21.75C22.0815 4.75 22.3995 4.8817 22.6339 5.11612C22.8683 5.35054 23 5.66848 23 6V8.5C23 8.83152 22.8683 9.14946 22.6339 9.38388C22.3995 9.6183 22.0815 9.75 21.75 9.75V19.125C21.75 19.6223 21.5525 20.0992 21.2008 20.4508C20.8492 20.8025 20.3723 21 19.875 21H6.125C5.62772 21 5.15081 20.8025 4.79917 20.4508C4.44754 20.0992 4.25 19.6223 4.25 19.125V9.75C3.91848 9.75 3.60054 9.6183 3.36612 9.38388C3.1317 9.14946 3 8.83152 3 8.5V6C3 5.66848 3.1317 5.35054 3.36612 5.11612C3.60054 4.8817 3.91848 4.75 4.25 4.75H6.7975C6.76448 4.54585 6.7486 4.3393 6.75 4.1325V4.125ZM8.085 4.75H11.75V4.125C11.75 3.87877 11.7015 3.63495 11.6073 3.40747C11.513 3.17998 11.3749 2.97328 11.2008 2.79917C11.0267 2.62506 10.82 2.48695 10.5925 2.39273C10.365 2.2985 10.1212 2.25 9.875 2.25C9.62877 2.25 9.38495 2.2985 9.15747 2.39273C8.92998 2.48695 8.72328 2.62506 8.54917 2.79917C8.37506 2.97328 8.23695 3.17998 8.14273 3.40747C8.0485 3.63495 8 3.87877 8 4.125C8 4.23125 8.0025 4.4675 8.05625 4.6625C8.06376 4.69231 8.07337 4.72155 8.085 4.75ZM14.25 4.75H17.915C17.9265 4.7215 17.9361 4.69227 17.9438 4.6625C17.9975 4.4675 18 4.23125 18 4.125C18 3.62772 17.8025 3.15081 17.4508 2.79917C17.0992 2.44754 16.6223 2.25 16.125 2.25C15.6277 2.25 15.1508 2.44754 14.7992 2.79917C14.4475 3.15081 14.25 3.62772 14.25 4.125V4.75ZM4.25 6V8.5H11.75V6H4.25ZM14.25 6V8.5H21.75V6H14.25ZM20.5 9.75H14.25V19.75H19.875C20.0408 19.75 20.1997 19.6842 20.3169 19.5669C20.4342 19.4497 20.5 19.2908 20.5 19.125V9.75ZM11.75 19.75V9.75H5.5V19.125C5.5 19.2908 5.56585 19.4497 5.68306 19.5669C5.80027 19.6842 5.95924 19.75 6.125 19.75H11.75Z" fill="#595959"/>
</svg>
