<svg width="24" height="24" viewBox="0 0 24 24" fill="none" xmlns="http://www.w3.org/2000/svg">
<path d="M12 8V12L10 14" stroke="#626263" stroke-width="2" stroke-linecap="round" stroke-linejoin="round"/>
<path d="M20.95 11.002C20.7259 8.80208 19.6997 6.76163 18.0672 5.26999C16.4347 3.77834 14.3103 2.93991 12.0991 2.91465C9.88789 2.88939 7.7448 3.67908 6.07869 5.13305C4.41257 6.58703 3.34006 8.6035 3.06578 10.7977C2.7915 12.992 3.33465 15.2104 4.5916 17.0298C5.84854 18.8491 7.73131 20.1421 9.88067 20.6619C12.03 21.1817 14.2955 20.892 16.245 19.8481C18.1944 18.8042 19.6912 17.0791 20.45 15.002" stroke="#626263" stroke-width="2" stroke-linecap="round" stroke-linejoin="round"/>
<path d="M20.95 20.002V15.002H15.95" stroke="#626263" stroke-width="2" stroke-linecap="round" stroke-linejoin="round"/>
</svg>
