<svg width="24" height="24" viewBox="0 0 24 24" fill="none" xmlns="http://www.w3.org/2000/svg">
<path d="M18.0438 22H16.0829C15.7561 22 15.4427 21.8705 15.2124 21.6402C14.9821 21.4099 14.8539 21.0978 14.8563 20.7733V17.7156C14.8563 17.3408 14.7063 16.9813 14.4393 16.7163C14.1723 16.4512 13.8102 16.3023 13.4326 16.3023H10.5584C9.77217 16.3023 9.13478 16.9351 9.13478 17.7156L18.0438 22ZM18.0438 22C18.9596 22.0023 19.8388 21.6428 20.4872 21.0008C21.1356 20.3588 21.5 19.487 21.5 18.5778V9.86686C21.5 9.13246 21.1721 8.43584 20.6046 7.96467L18.0438 22ZM8.38478 17.7156V20.2315L8.36186 20.2391L8.35794 20.7768C8.35606 21.0336 8.14427 21.25 7.87231 21.25H5.95617C4.45643 21.25 3.25 20.0445 3.25 18.5689V9.87648C3.26454 9.36102 3.51091 8.87723 3.92439 8.55906L3.93009 8.55468L3.9357 8.55019L10.4541 3.3325L10.4645 3.3242L10.4745 3.31553C11.3267 2.58238 12.5871 2.55955 13.4658 3.26177L13.4681 3.26356L20.1314 8.54662C20.5245 8.87593 20.75 9.35918 20.75 9.86686V18.5778C20.75 19.286 20.4662 19.9661 19.9595 20.4679C19.4525 20.9698 18.7641 21.2518 18.0458 21.25H18.0438H16.0829C15.9541 21.25 15.8318 21.1989 15.7427 21.1098C15.6538 21.021 15.6053 20.9017 15.6062 20.7789H15.6063V20.7733V17.7156C15.6063 17.1401 15.3759 16.5893 14.9677 16.184C14.5596 15.7789 14.0073 15.5523 13.4326 15.5523H10.5584C9.36312 15.5523 8.38478 16.5157 8.38478 17.7156Z" stroke="#B31340" stroke-width="1.5"/>
</svg>
