<svg width="39" height="38" viewBox="0 0 39 38" fill="none" xmlns="http://www.w3.org/2000/svg">
<g clip-path="url(#clip0_662_38)">
<path d="M12.2286 3.624C12.2982 3.5078 12.3442 3.37903 12.3641 3.24505C12.3839 3.11106 12.3772 2.97447 12.3442 2.84309C12.3113 2.71171 12.2528 2.5881 12.1721 2.47932C12.0914 2.37055 11.99 2.27873 11.8738 2.20912C11.7576 2.13951 11.6288 2.09347 11.4949 2.07363C11.3609 2.05379 11.2243 2.06053 11.0929 2.09347C10.9615 2.12641 10.8379 2.18491 10.7291 2.26562C10.6204 2.34633 10.5285 2.44768 10.4589 2.56387L4.57256 12.3752H1.03125C0.757746 12.3752 0.495443 12.4838 0.302046 12.6772C0.108649 12.8706 0 13.1329 0 13.4064L0 15.4689C0 15.7424 0.108649 16.0047 0.302046 16.1981C0.495443 16.3915 0.757746 16.5002 1.03125 16.5002H2.31619L6.11944 29.8157C6.21195 30.1396 6.40764 30.4244 6.67678 30.6269C6.94592 30.8294 7.27381 30.9385 7.61063 30.9377H25.3935C25.73 30.9381 26.0574 30.8287 26.3261 30.6263C26.5948 30.4238 26.7902 30.1392 26.8826 29.8157L30.6838 16.5002H31.9688C32.2423 16.5002 32.5046 16.3915 32.698 16.1981C32.8913 16.0047 33 15.7424 33 15.4689V13.4064C33 13.1329 32.8913 12.8706 32.698 12.6772C32.5046 12.4838 32.2423 12.3752 31.9688 12.3752H28.4274L22.5431 2.56387C22.4735 2.44768 22.3817 2.34633 22.2729 2.26562C22.1642 2.18491 22.0405 2.12641 21.9092 2.09347C21.7778 2.06053 21.6412 2.05379 21.5072 2.07363C21.3732 2.09347 21.2444 2.13951 21.1283 2.20912C21.0121 2.27873 20.9107 2.37055 20.83 2.47932C20.7493 2.5881 20.6908 2.71171 20.6578 2.84309C20.6249 2.97447 20.6182 3.11106 20.638 3.24505C20.6579 3.37903 20.7039 3.5078 20.7735 3.624L26.0226 12.3752H6.97744L12.2306 3.624H12.2286ZM8.25 20.6252C8.25 20.0782 8.4673 19.5536 8.85409 19.1668C9.24089 18.78 9.76549 18.5627 10.3125 18.5627C10.8595 18.5627 11.3841 18.78 11.7709 19.1668C12.1577 19.5536 12.375 20.0782 12.375 20.6252V24.7502C12.375 25.2972 12.1577 25.8218 11.7709 26.2086C11.3841 26.5954 10.8595 26.8127 10.3125 26.8127C9.76549 26.8127 9.24089 26.5954 8.85409 26.2086C8.4673 25.8218 8.25 25.2972 8.25 24.7502V20.6252ZM14.4375 20.6252C14.4375 20.0782 14.6548 19.5536 15.0416 19.1668C15.4284 18.78 15.953 18.5627 16.5 18.5627C17.047 18.5627 17.5716 18.78 17.9584 19.1668C18.3452 19.5536 18.5625 20.0782 18.5625 20.6252V24.7502C18.5625 25.2972 18.3452 25.8218 17.9584 26.2086C17.5716 26.5954 17.047 26.8127 16.5 26.8127C15.953 26.8127 15.4284 26.5954 15.0416 26.2086C14.6548 25.8218 14.4375 25.2972 14.4375 24.7502V20.6252ZM22.6875 18.5627C23.2345 18.5627 23.7591 18.78 24.1459 19.1668C24.5327 19.5536 24.75 20.0782 24.75 20.6252V24.7502C24.75 25.2972 24.5327 25.8218 24.1459 26.2086C23.7591 26.5954 23.2345 26.8127 22.6875 26.8127C22.1405 26.8127 21.6159 26.5954 21.2291 26.2086C20.8423 25.8218 20.625 25.2972 20.625 24.7502V20.6252C20.625 20.0782 20.8423 19.5536 21.2291 19.1668C21.6159 18.78 22.1405 18.5627 22.6875 18.5627Z" fill="white"/>
</g>
<path d="M33 37C35.7614 37 38 34.7614 38 32C38 29.2386 35.7614 27 33 27C30.2386 27 28 29.2386 28 32C28 34.7614 30.2386 37 33 37Z" stroke="white" stroke-width="2" stroke-linecap="round" stroke-linejoin="round"/>
<path d="M33 30V34" stroke="white" stroke-width="2" stroke-linecap="round" stroke-linejoin="round"/>
<path d="M31 32H35" stroke="white" stroke-width="2" stroke-linecap="round" stroke-linejoin="round"/>
<defs>
<clipPath id="clip0_662_38">
<rect width="33" height="33" fill="white"/>
</clipPath>
</defs>
</svg>
