<svg width="10" height="10" viewBox="0 0 10 10" fill="none" xmlns="http://www.w3.org/2000/svg">
<path fill-rule="evenodd" clip-rule="evenodd" d="M6.78378 5.0912C6.81288 5.12023 6.83597 5.15471 6.85172 5.19268C6.86748 5.23064 6.87559 5.27134 6.87559 5.31245C6.87559 5.35355 6.86748 5.39425 6.85172 5.43222C6.83597 5.47018 6.81288 5.50467 6.78378 5.5337L4.90878 7.4087C4.87975 7.4378 4.84527 7.46089 4.8073 7.47664C4.76933 7.4924 4.72863 7.50051 4.68753 7.50051C4.64642 7.50051 4.60572 7.4924 4.56776 7.47664C4.52979 7.46089 4.49531 7.4378 4.46628 7.4087L3.52878 6.4712C3.49972 6.44214 3.47668 6.40765 3.46095 6.36969C3.44523 6.33173 3.43713 6.29104 3.43713 6.24995C3.43713 6.20886 3.44523 6.16817 3.46095 6.13021C3.47668 6.09225 3.49972 6.05775 3.52878 6.0287C3.58746 5.97002 3.66704 5.93705 3.75003 5.93705C3.79112 5.93705 3.83181 5.94515 3.86977 5.96087C3.90773 5.9766 3.94222 5.99964 3.97128 6.0287L4.68753 6.74557L6.34128 5.0912C6.37031 5.0621 6.40479 5.03901 6.44276 5.02325C6.48072 5.0075 6.52142 4.99939 6.56253 4.99939C6.60363 4.99939 6.64433 5.0075 6.6823 5.02325C6.72026 5.03901 6.75475 5.0621 6.78378 5.0912Z" fill="white"/>
<path d="M5 0.625C5.4144 0.625 5.81183 0.78962 6.10485 1.08265C6.39788 1.37567 6.5625 1.7731 6.5625 2.1875V2.5H3.4375V2.1875C3.4375 1.7731 3.60212 1.37567 3.89515 1.08265C4.18817 0.78962 4.5856 0.625 5 0.625ZM7.1875 2.5V2.1875C7.1875 1.60734 6.95703 1.05094 6.5468 0.640704C6.13656 0.230468 5.58016 0 5 0C4.41984 0 3.86344 0.230468 3.4532 0.640704C3.04297 1.05094 2.8125 1.60734 2.8125 2.1875V2.5H0.625V8.75C0.625 9.08152 0.756696 9.39946 0.991117 9.63388C1.22554 9.8683 1.54348 10 1.875 10H8.125C8.45652 10 8.77446 9.8683 9.00888 9.63388C9.2433 9.39946 9.375 9.08152 9.375 8.75V2.5H7.1875ZM1.25 3.125H8.75V8.75C8.75 8.91576 8.68415 9.07473 8.56694 9.19194C8.44973 9.30915 8.29076 9.375 8.125 9.375H1.875C1.70924 9.375 1.55027 9.30915 1.43306 9.19194C1.31585 9.07473 1.25 8.91576 1.25 8.75V3.125Z" fill="white"/>
</svg>
