<svg width="11" height="11" viewBox="0 0 11 11" fill="none" xmlns="http://www.w3.org/2000/svg">
<path d="M2.40625 0C2.49742 0 2.58485 0.0362164 2.64932 0.100682C2.71378 0.165148 2.75 0.252582 2.75 0.34375V0.6875H8.25V0.34375C8.25 0.252582 8.28622 0.165148 8.35068 0.100682C8.41515 0.0362164 8.50258 0 8.59375 0C8.68492 0 8.77235 0.0362164 8.83682 0.100682C8.90128 0.165148 8.9375 0.252582 8.9375 0.34375V0.6875H9.625C9.98967 0.6875 10.3394 0.832366 10.5973 1.09023C10.8551 1.34809 11 1.69783 11 2.0625V9.625C11 9.98967 10.8551 10.3394 10.5973 10.5973C10.3394 10.8551 9.98967 11 9.625 11H1.375C1.01033 11 0.660591 10.8551 0.402728 10.5973C0.144866 10.3394 0 9.98967 0 9.625V2.0625C0 1.69783 0.144866 1.34809 0.402728 1.09023C0.660591 0.832366 1.01033 0.6875 1.375 0.6875H2.0625V0.34375C2.0625 0.252582 2.09872 0.165148 2.16318 0.100682C2.22765 0.0362164 2.31508 0 2.40625 0V0ZM1.375 1.375C1.19266 1.375 1.0178 1.44743 0.888864 1.57636C0.759933 1.7053 0.6875 1.88016 0.6875 2.0625V9.625C0.6875 9.80734 0.759933 9.9822 0.888864 10.1111C1.0178 10.2401 1.19266 10.3125 1.375 10.3125H9.625C9.80734 10.3125 9.9822 10.2401 10.1111 10.1111C10.2401 9.9822 10.3125 9.80734 10.3125 9.625V2.0625C10.3125 1.88016 10.2401 1.7053 10.1111 1.57636C9.9822 1.44743 9.80734 1.375 9.625 1.375H1.375Z" fill="#636363"/>
<path d="M1.71875 2.75C1.71875 2.65883 1.75497 2.5714 1.81943 2.50693C1.8839 2.44247 1.97133 2.40625 2.0625 2.40625H8.9375C9.02867 2.40625 9.1161 2.44247 9.18057 2.50693C9.24503 2.5714 9.28125 2.65883 9.28125 2.75V3.4375C9.28125 3.52867 9.24503 3.6161 9.18057 3.68057C9.1161 3.74503 9.02867 3.78125 8.9375 3.78125H2.0625C1.97133 3.78125 1.8839 3.74503 1.81943 3.68057C1.75497 3.6161 1.71875 3.52867 1.71875 3.4375V2.75ZM7.5625 5.15625C7.5625 5.06508 7.59872 4.97765 7.66318 4.91318C7.72765 4.84872 7.81508 4.8125 7.90625 4.8125H8.59375C8.68492 4.8125 8.77235 4.84872 8.83682 4.91318C8.90128 4.97765 8.9375 5.06508 8.9375 5.15625V5.84375C8.9375 5.93492 8.90128 6.02235 8.83682 6.08682C8.77235 6.15128 8.68492 6.1875 8.59375 6.1875H7.90625C7.81508 6.1875 7.72765 6.15128 7.66318 6.08682C7.59872 6.02235 7.5625 5.93492 7.5625 5.84375V5.15625ZM5.5 5.15625C5.5 5.06508 5.53622 4.97765 5.60068 4.91318C5.66515 4.84872 5.75258 4.8125 5.84375 4.8125H6.53125C6.62242 4.8125 6.70985 4.84872 6.77432 4.91318C6.83878 4.97765 6.875 5.06508 6.875 5.15625V5.84375C6.875 5.93492 6.83878 6.02235 6.77432 6.08682C6.70985 6.15128 6.62242 6.1875 6.53125 6.1875H5.84375C5.75258 6.1875 5.66515 6.15128 5.60068 6.08682C5.53622 6.02235 5.5 5.93492 5.5 5.84375V5.15625ZM2.0625 7.21875C2.0625 7.12758 2.09872 7.04015 2.16318 6.97568C2.22765 6.91122 2.31508 6.875 2.40625 6.875H3.09375C3.18492 6.875 3.27235 6.91122 3.33682 6.97568C3.40128 7.04015 3.4375 7.12758 3.4375 7.21875V7.90625C3.4375 7.99742 3.40128 8.08485 3.33682 8.14932C3.27235 8.21378 3.18492 8.25 3.09375 8.25H2.40625C2.31508 8.25 2.22765 8.21378 2.16318 8.14932C2.09872 8.08485 2.0625 7.99742 2.0625 7.90625V7.21875ZM4.125 7.21875C4.125 7.12758 4.16122 7.04015 4.22568 6.97568C4.29015 6.91122 4.37758 6.875 4.46875 6.875H5.15625C5.24742 6.875 5.33485 6.91122 5.39932 6.97568C5.46378 7.04015 5.5 7.12758 5.5 7.21875V7.90625C5.5 7.99742 5.46378 8.08485 5.39932 8.14932C5.33485 8.21378 5.24742 8.25 5.15625 8.25H4.46875C4.37758 8.25 4.29015 8.21378 4.22568 8.14932C4.16122 8.08485 4.125 7.99742 4.125 7.90625V7.21875Z" fill="#636363"/>
</svg>
