<svg width="42" height="42" viewBox="0 0 42 42" fill="none" xmlns="http://www.w3.org/2000/svg">
<path d="M28.4918 18.7586C28.614 18.8806 28.711 19.0254 28.7771 19.1849C28.8433 19.3443 28.8774 19.5153 28.8774 19.6879C28.8774 19.8605 28.8433 20.0315 28.7771 20.1909C28.711 20.3504 28.614 20.4952 28.4918 20.6171L20.6168 28.4921C20.4948 28.6144 20.35 28.7113 20.1905 28.7775C20.0311 28.8437 19.8601 28.8777 19.6875 28.8777C19.5149 28.8777 19.3439 28.8437 19.1845 28.7775C19.025 28.7113 18.8802 28.6144 18.7583 28.4921L14.8208 24.5546C14.6987 24.4326 14.6019 24.2877 14.5359 24.1283C14.4698 23.9689 14.4359 23.798 14.4359 23.6254C14.4359 23.4528 14.4698 23.2819 14.5359 23.1225C14.6019 22.963 14.6987 22.8182 14.8208 22.6961C15.0672 22.4497 15.4015 22.3112 15.75 22.3112C15.9226 22.3112 16.0935 22.3452 16.2529 22.4113C16.4124 22.4773 16.5572 22.5741 16.6793 22.6961L19.6875 25.707L26.6333 18.7586C26.7552 18.6364 26.9 18.5394 27.0595 18.4733C27.2189 18.4071 27.3899 18.373 27.5625 18.373C27.7351 18.373 27.9061 18.4071 28.0655 18.4733C28.225 18.5394 28.3698 18.6364 28.4918 18.7586Z" fill="white"/>
<path d="M9.1875 0C9.5356 0 9.86944 0.138281 10.1156 0.384422C10.3617 0.630564 10.5 0.964403 10.5 1.3125V2.625H31.5V1.3125C31.5 0.964403 31.6383 0.630564 31.8844 0.384422C32.1306 0.138281 32.4644 0 32.8125 0C33.1606 0 33.4944 0.138281 33.7406 0.384422C33.9867 0.630564 34.125 0.964403 34.125 1.3125V2.625H36.75C38.1424 2.625 39.4777 3.17812 40.4623 4.16269C41.4469 5.14726 42 6.48261 42 7.875V36.75C42 38.1424 41.4469 39.4777 40.4623 40.4623C39.4777 41.4469 38.1424 42 36.75 42H5.25C3.85761 42 2.52226 41.4469 1.53769 40.4623C0.553123 39.4777 0 38.1424 0 36.75V7.875C0 6.48261 0.553123 5.14726 1.53769 4.16269C2.52226 3.17812 3.85761 2.625 5.25 2.625H7.875V1.3125C7.875 0.964403 8.01328 0.630564 8.25942 0.384422C8.50556 0.138281 8.8394 0 9.1875 0V0ZM2.625 10.5V36.75C2.625 37.4462 2.90156 38.1139 3.39384 38.6062C3.88613 39.0984 4.55381 39.375 5.25 39.375H36.75C37.4462 39.375 38.1139 39.0984 38.6062 38.6062C39.0984 38.1139 39.375 37.4462 39.375 36.75V10.5H2.625Z" fill="white"/>
</svg>
