<svg width="42" height="42" viewBox="0 0 42 42" fill="none" xmlns="http://www.w3.org/2000/svg">
<path d="M0 10.5C0 9.10761 0.553123 7.77226 1.53769 6.78769C2.52226 5.80312 3.85761 5.25 5.25 5.25H36.75C38.1424 5.25 39.4777 5.80312 40.4623 6.78769C41.4469 7.77226 42 9.10761 42 10.5V23.625H0V10.5ZM30.1875 13.125C29.8394 13.125 29.5056 13.2633 29.2594 13.5094C29.0133 13.7556 28.875 14.0894 28.875 14.4375V17.0625C28.875 17.4106 29.0133 17.7444 29.2594 17.9906C29.5056 18.2367 29.8394 18.375 30.1875 18.375H35.4375C35.7856 18.375 36.1194 18.2367 36.3656 17.9906C36.6117 17.7444 36.75 17.4106 36.75 17.0625V14.4375C36.75 14.0894 36.6117 13.7556 36.3656 13.5094C36.1194 13.2633 35.7856 13.125 35.4375 13.125H30.1875ZM0 28.875V31.5C0 32.8924 0.553123 34.2277 1.53769 35.2123C2.52226 36.1969 3.85761 36.75 5.25 36.75H36.75C38.1424 36.75 39.4777 36.1969 40.4623 35.2123C41.4469 34.2277 42 32.8924 42 31.5V28.875H0Z" fill="white"/>
</svg>
