<svg width="20" height="21" viewBox="0 0 20 21" fill="none" xmlns="http://www.w3.org/2000/svg">
<path fill-rule="evenodd" clip-rule="evenodd" d="M1.56055 0.45609C1.14241 0.78499 0.83996 1.43382 0.47587 2.78346C-0.15203 5.11037 0.00505996 5.34704 1.58746 4.4574L2.74827 3.80489L3.41688 4.44544L4.08549 5.08576L5.37855 4.45165L6.67161 3.81754L7.33355 4.45165L7.99549 5.08576L9.28855 4.45165L10.5816 3.81754L11.2764 4.48316C11.7357 4.92338 12.0485 5.07173 12.1994 4.92085C12.3248 4.7955 12.7829 3.63699 13.2176 2.34646L14.0079 0H8.07415C2.50585 0 2.1045 0.02806 1.56055 0.45609ZM15.0172 0.2875C14.892 0.44574 14.4527 1.59689 14.0406 2.84602C13.0088 5.97356 12.3142 6.56512 10.9413 5.48527L10.3125 4.99054L9.2943 5.48527C8.02746 6.10075 7.81379 6.10075 7.03133 5.48527L6.40251 4.99054L5.3843 5.48527C4.12896 6.09523 3.90126 6.09868 3.16549 5.52C2.84395 5.267 2.46882 5.06 2.33174 5.06C2.19489 5.06 1.61414 5.99311 1.04144 7.13368L0 9.20736L0.06164 14.6662L0.12328 20.125L7.19578 20.1857L14.2683 20.2467V14.6455V9.04429L15.4183 6.69254C16.5149 4.45027 16.5683 4.25293 16.5683 2.44651C16.5683 1.27972 16.4622 0.44597 16.2923 0.276C15.9337 -0.08257 15.3053 -0.07682 15.0172 0.2875ZM16.1596 7.24845L15.1883 9.20667V14.7324V20.2579L17.2008 20.1915L19.2133 20.125L19.2818 14.72L19.3501 9.315L18.3719 7.3025C17.834 6.19574 17.3344 5.29 17.2622 5.29C17.19 5.29 16.6936 6.17136 16.1596 7.24845ZM10.5883 14.26V16.56H7.13828H3.68828V14.26V11.96H7.13828H10.5883V14.26Z" fill="#1B1E20"/>
</svg>
