<svg width="26" height="20" viewBox="0 0 26 20" fill="none" xmlns="http://www.w3.org/2000/svg">
<path fill-rule="evenodd" clip-rule="evenodd" d="M12.0761 0.0614472C11.6071 0.215416 11.216 0.460486 10.8948 0.801939C10.3509 1.37993 10.2019 1.76953 10.2019 2.61331C10.2019 3.45699 10.3508 3.84638 10.8948 4.42498C11.4347 4.99921 11.9223 5.19848 12.7877 5.19848C13.6531 5.19848 14.1407 4.99921 14.6806 4.42498C15.2246 3.84638 15.3735 3.45699 15.3735 2.61331C15.3735 2.06974 15.3199 1.74982 15.1864 1.49612C14.9229 0.995619 14.4311 0.498267 13.9586 0.255025C13.5209 0.0294548 12.495 -0.0759669 12.0761 0.0614472ZM13.4741 1.39405C13.6562 1.50506 13.8959 1.74474 14.0069 1.92685C14.7308 3.11401 13.2884 4.5564 12.1012 3.83256C11.6735 3.57185 11.3665 3.06231 11.3665 2.61331C11.3665 1.89678 12.0712 1.19214 12.7877 1.19214C12.9832 1.19214 13.2921 1.28304 13.4741 1.39405ZM11.5182 6.61588C10.1382 6.93428 8.95989 7.55849 7.70956 8.63332C5.42318 10.5987 3.44322 14.0697 2.86564 17.1248L2.69054 18.0508H1.5438C0.532441 18.0508 0.37309 18.0748 0.193934 18.2539C-0.0646445 18.5125 -0.0646445 18.8079 0.193934 19.0664C0.394824 19.2673 0.532441 19.2696 12.7877 19.2696C25.0429 19.2696 25.1805 19.2673 25.3814 19.0664C25.64 18.8079 25.64 18.5125 25.3814 18.2539C25.2024 18.0749 25.0429 18.0508 24.0343 18.0508H22.8902L22.6588 16.9185C21.8841 13.1283 19.2479 9.22787 16.2873 7.49166C14.8432 6.64473 12.9217 6.2919 11.5182 6.61588ZM11.9525 9.06832C12.2727 9.29246 12.2524 9.75122 11.9107 10.02C11.7635 10.1357 11.5878 10.2305 11.5202 10.2305C11.3134 10.2305 10.2331 10.9834 9.57252 11.5879C8.86554 12.2348 8.52856 12.318 8.26206 11.9113C8.17025 11.7712 8.12657 11.5754 8.16202 11.4636C8.32066 10.9639 10.0198 9.54881 10.99 9.10833C11.5116 8.87149 11.6627 8.86529 11.9525 9.06832ZM7.42224 13.547C7.52441 13.6394 7.608 13.8241 7.608 13.9573C7.608 14.2193 7.27426 14.9453 7.02188 15.2324C6.71262 15.5842 5.983 15.3393 5.983 14.8837C5.983 14.6284 6.55205 13.5132 6.71597 13.4473C6.97293 13.3441 7.23963 13.3818 7.42224 13.547Z" fill="#1B1E20"/>
</svg>
