<svg width="42" height="42" viewBox="0 0 42 42" fill="none" xmlns="http://www.w3.org/2000/svg">
<path d="M0 21C0 15.4305 2.21249 10.089 6.15076 6.15076C10.089 2.21249 15.4305 0 21 0C26.5695 0 31.911 2.21249 35.8492 6.15076C39.7875 10.089 42 15.4305 42 21C42 26.5695 39.7875 31.911 35.8492 35.8492C31.911 39.7875 26.5695 42 21 42C15.4305 42 10.089 39.7875 6.15076 35.8492C2.21249 31.911 0 26.5695 0 21ZM19.6875 2.82713C17.9287 3.36263 16.1831 4.97962 14.7341 7.6965C14.3587 8.4 14.0096 9.1665 13.6972 9.9855C15.5479 10.3976 17.5613 10.6601 19.6875 10.7389V2.82713ZM11.1536 9.28988C11.5264 8.28187 11.9516 7.33687 12.4163 6.46012C12.8701 5.6019 13.3943 4.78272 13.9834 4.011C11.7486 4.9371 9.71841 6.29474 8.00887 8.00625C8.95913 8.48925 10.0118 8.92237 11.1536 9.2925V9.28988ZM9.21113 19.6875C9.30562 16.8787 9.70463 14.2091 10.3556 11.7915C8.93471 11.3371 7.55936 10.7509 6.2475 10.0406C4.15681 12.8477 2.91591 16.1959 2.67225 19.6875H9.2085H9.21113ZM12.8861 12.4924C12.2673 14.8438 11.9151 17.2573 11.8361 19.6875H19.6875V13.3639C17.2987 13.2851 15.0071 12.9832 12.8861 12.4924ZM22.3125 13.3612V19.6875H30.1612C30.0832 17.2574 29.7319 14.8439 29.1139 12.4924C26.9929 12.9832 24.7013 13.2825 22.3125 13.3639V13.3612ZM11.8388 22.3125C11.9306 24.9034 12.3007 27.3368 12.8861 29.5076C15.1202 29.0006 17.3978 28.7097 19.6875 28.6388V22.3125H11.8388ZM22.3125 22.3125V28.6361C24.7013 28.7149 26.9929 29.0168 29.1139 29.5076C29.6992 27.3368 30.0694 24.9034 30.1639 22.3125H22.3125ZM13.6972 32.0145C14.0122 32.8335 14.3587 33.6 14.7341 34.3035C16.1831 37.0204 17.9314 38.6348 19.6875 39.1729V31.2638C17.5613 31.3425 15.5479 31.605 13.6972 32.0171V32.0145ZM13.986 37.989C13.396 37.2174 12.8709 36.3982 12.4163 35.5399C11.9328 34.6249 11.511 33.6787 11.1536 32.7075C10.0738 33.0545 9.0224 33.4846 8.00887 33.9937C9.71841 35.7053 11.7486 37.0629 13.9834 37.989H13.986ZM10.3556 30.2085C9.67411 27.6287 9.28925 24.9796 9.2085 22.3125H2.67225C2.91576 25.8041 4.15667 29.1524 6.2475 31.9594C7.48125 31.2821 8.85938 30.6941 10.3556 30.2085ZM28.0166 37.989C30.2503 37.0634 32.2796 35.7067 33.9885 33.9964C32.9758 33.4873 31.9253 33.0572 30.8464 32.7101C30.4889 33.6804 30.0671 34.6258 29.5838 35.5399C29.13 36.3982 28.6058 37.2174 28.0166 37.989ZM22.3125 31.2611V39.1729C24.0713 38.6374 25.8169 37.0204 27.2659 34.3035C27.6413 33.6 27.9904 32.8335 28.3027 32.0145C26.333 31.5826 24.3279 31.3313 22.3125 31.2638V31.2611ZM31.6444 30.2085C33.1406 30.6941 34.5187 31.2821 35.7525 31.9594C37.8433 29.1524 39.0842 25.8041 39.3278 22.3125H32.7915C32.7108 24.9796 32.3259 27.6287 31.6444 30.2085ZM39.3278 19.6875C39.0842 16.1959 37.8433 12.8476 35.7525 10.0406C34.5187 10.7179 33.1406 11.3059 31.6444 11.7915C32.2954 14.2065 32.6944 16.8787 32.7915 19.6875H39.3278ZM29.5838 6.46012C30.0484 7.33687 30.4736 8.28187 30.849 9.28988C31.9271 8.94271 32.9767 8.51267 33.9885 8.00362C32.2793 6.29429 30.25 4.93847 28.0166 4.01363C28.5889 4.7565 29.1139 5.58075 29.5838 6.46012ZM28.3027 9.9855C28.0045 9.2019 27.6582 8.43745 27.2659 7.6965C25.8169 4.97962 24.0713 3.36525 22.3125 2.82713V10.7362C24.4387 10.6575 26.4521 10.395 28.3027 9.98287V9.9855Z" fill="white"/>
</svg>
