<svg width="42" height="42" viewBox="0 0 42 42" fill="none" xmlns="http://www.w3.org/2000/svg">
<path d="M28.875 15.75C28.875 17.8386 28.0453 19.8416 26.5685 21.3185C25.0916 22.7953 23.0886 23.625 21 23.625C18.9114 23.625 16.9084 22.7953 15.4315 21.3185C13.9547 19.8416 13.125 17.8386 13.125 15.75C13.125 13.6614 13.9547 11.6584 15.4315 10.1815C16.9084 8.70469 18.9114 7.875 21 7.875C23.0886 7.875 25.0916 8.70469 26.5685 10.1815C28.0453 11.6584 28.875 13.6614 28.875 15.75Z" fill="white"/>
<path fill-rule="evenodd" clip-rule="evenodd" d="M0 21C0 15.4305 2.21249 10.089 6.15076 6.15076C10.089 2.21249 15.4305 0 21 0C26.5695 0 31.911 2.21249 35.8492 6.15076C39.7875 10.089 42 15.4305 42 21C42 26.5695 39.7875 31.911 35.8492 35.8492C31.911 39.7875 26.5695 42 21 42C15.4305 42 10.089 39.7875 6.15076 35.8492C2.21249 31.911 0 26.5695 0 21V21ZM21 2.625C17.5397 2.62518 14.1497 3.60245 11.2203 5.44432C8.2909 7.28619 5.94112 9.9178 4.44141 13.0363C2.94169 16.1547 2.35301 19.6333 2.74312 23.0715C3.13323 26.5098 4.48626 29.7681 6.6465 32.4712C8.51025 29.4682 12.6131 26.25 21 26.25C29.3869 26.25 33.4871 29.4656 35.3535 32.4712C37.5137 29.7681 38.8668 26.5098 39.2569 23.0715C39.647 19.6333 39.0583 16.1547 37.5586 13.0363C36.0589 9.9178 33.7091 7.28619 30.7797 5.44432C27.8503 3.60245 24.4603 2.62518 21 2.625V2.625Z" fill="white"/>
</svg>
