<svg width="29" height="29" viewBox="0 0 29 29" fill="none" xmlns="http://www.w3.org/2000/svg">
<path d="M5 6H7H23" stroke="#CC3232" stroke-width="2" stroke-linecap="round" stroke-linejoin="round"/>
<path d="M21 6V20C21 20.5304 20.7893 21.0391 20.4142 21.4142C20.0391 21.7893 19.5304 22 19 22H9C8.46957 22 7.96086 21.7893 7.58579 21.4142C7.21071 21.0391 7 20.5304 7 20V6H21ZM10 6V4C10 3.46957 10.2107 2.96086 10.5858 2.58579C10.9609 2.21071 11.4696 2 12 2H16C16.5304 2 17.0391 2.21071 17.4142 2.58579C17.7893 2.96086 18 3.46957 18 4V6" fill="#CC3232"/>
<path d="M11.7764 11.7937L16.5077 16.4904" stroke="white" stroke-width="2" stroke-linecap="round" stroke-linejoin="round"/>
<path d="M11.7937 16.5078L16.4904 11.7764" stroke="white" stroke-width="2" stroke-linecap="round" stroke-linejoin="round"/>
</svg>
