<svg width="65" height="65" viewBox="0 0 65 65" fill="none" xmlns="http://www.w3.org/2000/svg">
<path d="M9.32117 30.7161V48.4313L38.0188 64.9999L55.6789 54.8038V37.0887L26.9812 20.52L9.32117 30.7161Z" fill="#3E3D43"/>
<path d="M13.7362 30.5884L38.0188 44.6081L51.2638 36.961L26.9812 22.9414L13.7362 30.5884Z" fill="#2E2E30"/>
<path d="M9.32117 30.7163V48.4315L38.0188 65.0001V47.285L9.32117 30.7163Z" fill="#2E2E30"/>
<path d="M55.6789 37.0889V54.804L38.0188 65.0001V47.285L55.6789 37.0889Z" fill="#1D1D1F"/>
<path d="M13.7362 25.1461V30.5925L22.5591 35.6864L27.9886 32.5516V27.1052L19.1656 22.0112L13.7362 25.1461Z" fill="#FEC377"/>
<path d="M13.7362 25.146V30.5924L22.5591 35.6863V30.2399L13.7362 25.146Z" fill="#FFB657"/>
<path d="M27.9886 27.105V32.5514L22.5591 35.6861V30.2397L27.9886 27.105Z" fill="#FFA834"/>
<path d="M32.5045 36.0441V31.3968C32.5053 30.8248 32.1299 30.2527 31.378 29.8186C29.8745 28.9505 27.414 28.9505 25.9105 29.8186C25.1584 30.2527 24.7822 30.8249 24.782 31.3968V36.0441H24.7821C24.7812 36.6161 25.1562 37.1881 25.9074 37.6219C27.4092 38.489 29.8698 38.489 31.3749 37.6219C32.1276 37.1882 32.5043 36.6161 32.5045 36.0441Z" fill="#898890"/>
<path d="M25.9102 29.8186C24.4067 30.6867 24.4052 32.1064 25.907 32.9733C27.4088 33.8404 29.8691 33.8404 31.3745 32.9733C32.8799 32.1063 32.8812 30.6867 31.3777 29.8186C29.8743 28.9505 27.414 28.9505 25.9102 29.8186Z" fill="#ACABB1"/>
<path d="M31.3962 35.3398V40.7862L38.0188 44.608L43.4483 41.4733V36.0269L36.8256 32.2051L31.3962 35.3398Z" fill="#FEC377"/>
<path d="M31.3962 35.3398V40.7863L38.0188 44.6081V39.1616L31.3962 35.3398Z" fill="#FFB657"/>
<path d="M43.4483 36.0269V41.4733L38.0188 44.608V39.1616L43.4483 36.0269Z" fill="#FFA834"/>
<path d="M12.0187 12.313V12.3125H12.0185C12.0183 12.24 11.9708 12.1677 11.8758 12.1124C11.6852 12.0019 11.373 12.0015 11.1818 12.1119C11.0863 12.1672 11.0383 12.2398 11.0383 12.3125V30.838C11.0383 30.9108 11.0859 30.9833 11.1813 31.0385C11.3722 31.1487 11.6844 31.1488 11.8753 31.039C11.9711 30.9838 12.0188 30.911 12.0187 30.838C12.0187 30.838 12.0187 12.3131 12.0187 12.313Z" fill="#D8D8DA"/>
<path d="M38.509 27.4536V27.4531H38.5088C38.5086 27.3806 38.4611 27.3083 38.3661 27.2531C38.1755 27.1425 37.8633 27.1421 37.6721 27.2526C37.5766 27.3078 37.5286 27.3804 37.5286 27.4531V45.9785C37.5286 46.0513 37.5762 46.1238 37.6716 46.1789C37.8625 46.289 38.1747 46.2892 38.3656 46.1794C38.4614 46.1241 38.5091 46.0514 38.5088 45.9784C38.509 45.9785 38.509 27.4538 38.509 27.4536Z" fill="#D8D8DA"/>
<path d="M53.9615 18.6221V18.6216H53.9614C53.9611 18.5491 53.9137 18.4767 53.8187 18.4215C53.628 18.3109 53.3159 18.3106 53.1247 18.421C53.0292 18.4762 52.9812 18.5489 52.9812 18.6216V37.1471C52.9812 37.2198 53.0288 37.2923 53.1241 37.3474C53.3151 37.4576 53.6273 37.4578 53.8182 37.3479C53.9139 37.2927 53.9617 37.22 53.9614 37.147C53.9615 37.1471 53.9615 18.6222 53.9615 18.6221Z" fill="#C6C5CB"/>
<path d="M9.32117 12.7451L38.0188 29.3137L55.6789 19.1177V16.5687L26.9812 0L9.32117 10.1961V12.7451Z" fill="#CD2A01"/>
<path d="M9.32117 10.1961L38.0188 26.7648L55.6789 16.5687L26.9812 0L9.32117 10.1961Z" fill="#AD2201"/>
<path d="M26.9812 0V2.54896L9.32117 10.1961L26.9812 0Z" fill="#CD2A01"/>
<path d="M9.32117 10.196L26.9812 2.54883L44.7598 12.8132L38.0188 26.7646L9.32117 10.196Z" fill="#FF3502"/>
<path d="M14.757 3.46398V13.36L34.083 24.5178L35.2804 23.8354V13.9173L15.9929 2.78174L14.757 3.46398Z" fill="#2E2E30"/>
<path d="M34.083 24.5179L35.2804 23.8356V13.9175L34.083 14.6V24.5179Z" fill="#1D1D1F"/>
<path d="M14.757 3.46398L15.9929 2.78174L35.2804 13.9173L34.083 14.5998L14.757 3.46398Z" fill="#3E3D43"/>
<path d="M44.7598 12.8135L55.6789 16.5687L38.0188 26.7649L44.7598 12.8135Z" fill="#891D00"/>
<path d="M38.0188 26.765V29.3139L55.6789 19.1179V16.5688L38.0188 26.765Z" fill="#791900"/>
<path d="M19.6007 9.13633L19.5984 9.9096L17.7124 8.82072L17.7091 9.99072L19.2776 10.8963L19.2756 11.6119L17.707 10.7064L17.7017 12.5858L16.9338 12.1425L16.9466 7.604L19.6007 9.13633ZM21.7317 14.1635C21.9173 14.2707 22.0812 14.3215 22.2243 14.3164C22.3672 14.3118 22.4885 14.2657 22.5869 14.1771C22.6859 14.0895 22.7607 13.9692 22.8108 13.8165C22.8615 13.664 22.8875 13.4946 22.888 13.3071C22.8885 13.1112 22.8619 12.9058 22.8085 12.6914C22.7552 12.4776 22.6794 12.2717 22.5819 12.0742C22.4838 11.8769 22.3637 11.6956 22.2212 11.5299C22.0788 11.3649 21.9181 11.2303 21.7402 11.1277C21.5546 11.0206 21.3893 10.969 21.2446 10.9723C21.0999 10.9764 20.9791 11.0223 20.882 11.1088C20.7854 11.1965 20.7118 11.316 20.6611 11.4678C20.6105 11.6203 20.5844 11.7896 20.5839 11.9772C20.5834 12.173 20.6088 12.3778 20.6604 12.5912C20.7119 12.8046 20.7864 13.0099 20.8846 13.2072C20.9821 13.4049 21.1028 13.5872 21.2451 13.755C21.3877 13.9226 21.5497 14.0586 21.7317 14.1635ZM21.7533 10.3472C22.0393 10.5124 22.2991 10.7298 22.5344 11.0001C22.7699 11.2703 22.97 11.562 23.1365 11.876C23.3026 12.1898 23.432 12.5121 23.5238 12.8421C23.6161 13.1731 23.6613 13.4809 23.6604 13.7666C23.6596 14.0687 23.6109 14.3302 23.5134 14.5488C23.4164 14.7685 23.2822 14.9345 23.1111 15.0466C22.9399 15.1594 22.7352 15.2095 22.4976 15.1983C22.2596 15.1869 22.0019 15.1007 21.7237 14.9402C21.4341 14.7729 21.1719 14.5568 20.9371 14.2911C20.7016 14.025 20.5001 13.7355 20.3321 13.4233C20.164 13.1105 20.0341 12.7891 19.9418 12.4582C19.8501 12.1276 19.8043 11.8172 19.8052 11.5275C19.806 11.2253 19.8564 10.9641 19.9553 10.7436C20.0547 10.5232 20.1908 10.3569 20.3637 10.2431C20.5366 10.1294 20.742 10.0781 20.98 10.0895C21.2176 10.1012 21.4753 10.1866 21.7533 10.3472ZM25.9375 16.5919C26.1226 16.6987 26.287 16.7498 26.4301 16.7448C26.5731 16.7402 26.6937 16.6937 26.7927 16.6055C26.8911 16.5175 26.966 16.3972 27.0166 16.2448C27.0673 16.0923 27.0927 15.9226 27.0932 15.735C27.0937 15.5391 27.0677 15.3339 27.0144 15.1195C26.961 14.9057 26.8853 14.6998 26.7878 14.5023C26.6896 14.305 26.5695 14.1237 26.4266 13.9576C26.2841 13.7926 26.124 13.6584 25.9462 13.5557C25.7606 13.4485 25.5953 13.397 25.4506 13.4003C25.3058 13.4044 25.1846 13.4499 25.088 13.5368C24.9909 13.6241 24.9172 13.7437 24.8664 13.8953C24.8163 14.048 24.7904 14.2175 24.7899 14.4051C24.7894 14.601 24.8148 14.8058 24.8663 15.0192C24.9179 15.2326 24.9924 15.4379 25.0905 15.6352C25.188 15.8329 25.3081 16.0149 25.4511 16.183C25.5936 16.3509 25.7556 16.4868 25.9375 16.5919ZM25.9593 12.7754C26.2446 12.9402 26.505 13.1581 26.7405 13.4284C26.9754 13.6983 27.1761 13.9903 27.3425 14.3042C27.509 14.6182 27.6381 14.9404 27.7299 15.2703C27.8215 15.6009 27.8674 15.9092 27.8665 16.1948C27.8657 16.4969 27.8165 16.7582 27.7195 16.9771C27.622 17.1963 27.4875 17.3624 27.3165 17.4744C27.1454 17.5871 26.9411 17.6376 26.7031 17.6262C26.4658 17.615 26.2073 17.5286 25.9292 17.3681C25.6401 17.2013 25.3778 16.9851 25.1431 16.7194C24.9076 16.4533 24.7061 16.1637 24.538 15.8516C24.3699 15.5388 24.2394 15.2171 24.1478 14.8865C24.0561 14.556 24.0103 14.2456 24.0112 13.9558C24.0119 13.6537 24.0618 13.3922 24.1612 13.1719C24.2599 12.9511 24.3962 12.7848 24.569 12.671C24.7425 12.5576 24.9479 12.5063 25.1853 12.5173C25.4234 12.5294 25.6812 12.6148 25.9593 12.7754ZM29.2197 18.461L29.8872 18.8463C30.0765 18.9556 30.2441 19.0142 30.3912 19.0225C30.5378 19.0298 30.6602 18.9949 30.7591 18.9176C30.8574 18.84 30.9334 18.7252 30.986 18.5719C31.0379 18.4181 31.0645 18.2351 31.0651 18.0219C31.0657 17.8044 31.0403 17.5894 30.9893 17.3762C30.9378 17.1628 30.8621 16.961 30.762 16.771C30.6626 16.5815 30.5396 16.4081 30.3928 16.251C30.2468 16.0936 30.081 15.9618 29.8956 15.8547L29.228 15.4694L29.2197 18.461ZM29.898 15.0814C30.2208 15.2678 30.503 15.4907 30.7458 15.7503C30.9885 16.0096 31.1912 16.2886 31.3539 16.588C31.516 16.8862 31.638 17.1967 31.7189 17.5189C31.7996 17.8411 31.8395 18.1571 31.8386 18.4683C31.8377 18.8136 31.7914 19.0994 31.6998 19.3262C31.6078 19.5528 31.4764 19.7157 31.3054 19.8154C31.1342 19.9157 30.929 19.9502 30.6891 19.921C30.45 19.8915 30.182 19.791 29.8852 19.6196L28.4497 18.7909L28.4625 14.2524L29.898 15.0814Z" fill="white"/>
</svg>
