<svg width="65" height="65" viewBox="0 0 65 65" fill="none" xmlns="http://www.w3.org/2000/svg">
<path d="M18.9202 13.3516H16.822V24.6539H18.9202V13.3516Z" fill="#333E48"/>
<path d="M42.8342 13.3516H40.7361V24.6539H42.8342V13.3516Z" fill="#333E48"/>
<path d="M13.152 14.4363L39.0663 13.1146V9.4548L13.152 8.13296C11.8228 8.06517 10.708 9.1246 10.708 10.4554V12.1138C10.7081 13.4448 11.823 14.5041 13.152 14.4363Z" fill="#65513C"/>
<path opacity="0.2" d="M14.5509 13.1775C13.2217 13.2453 12.1069 12.1859 12.1069 10.855V9.19664C12.1069 8.85793 12.1798 8.53737 12.3091 8.24805C11.3838 8.55197 10.708 9.42021 10.708 10.4555V12.114C10.708 13.4449 11.8229 14.5043 13.152 14.4365L39.0663 13.1148V11.9271L14.5509 13.1775Z" fill="black"/>
<path d="M54.2919 16.5133C54.2919 15.8086 53.7206 15.2374 53.0159 15.2374H45.7516C45.0125 15.2374 44.4133 14.6382 44.4133 13.8991C44.4133 13.1599 45.0125 12.5607 45.7516 12.5607H53.0159C53.7206 12.5607 54.2919 11.9894 54.2919 11.2848C54.2919 10.5801 53.7206 10.0088 53.0159 10.0088H45.7516C45.0125 10.0088 44.4133 9.40962 44.4133 8.6705C44.4133 7.93138 45.0125 7.33216 45.7516 7.33216H53.0159C53.7206 7.33216 54.2919 6.76087 54.2919 6.05628C54.2919 5.35156 53.7206 4.78027 53.0159 4.78027H43.538C39.9456 4.78027 37.0334 7.69245 37.0334 11.2848C37.0334 14.8771 39.9456 17.7894 43.538 17.7894H53.0159C53.7206 17.7892 54.2919 17.2179 54.2919 16.5133Z" fill="#C3C6C8"/>
<path opacity="0.1" d="M44.2373 16.9497C40.645 16.9497 37.7328 14.0375 37.7328 10.4452C37.7328 9.26355 38.0507 8.01497 38.6015 7.05127C37.6249 8.18915 37.0333 9.66727 37.0333 11.2845C37.0333 14.8768 39.9454 17.789 43.5378 17.789H53.0158C53.5668 17.789 54.0348 17.439 54.2134 16.9497H44.2373Z" fill="black"/>
<path d="M63.0683 22.7671H1.93172C0.864932 22.7671 0 23.632 0 24.6989V58.9742C0 59.6617 0.557451 60.2191 1.2449 60.2191H63.755C64.4425 60.2191 64.9999 59.6617 64.9999 58.9742V24.6991C65 23.632 64.1351 22.7671 63.0683 22.7671Z" fill="#B07C57"/>
<path d="M41.8369 44.4316H23.1628V60.22H41.8369V44.4316Z" fill="#6DABE4"/>
<path opacity="0.1" d="M33.549 44.4302H31.4509V60.2186H33.549V44.4302Z" fill="black"/>
<path opacity="0.2" d="M41.8369 44.4316H23.1628V46.6517H41.8369V44.4316Z" fill="black"/>
<path d="M65 27.8904H0V24.6993C0 23.6324 0.864932 22.7676 1.93172 22.7676H63.0682C64.1351 22.7676 64.9999 23.6325 64.9999 24.6993V27.8904H65Z" fill="#FF6361"/>
<path d="M64.9999 27.8906H0V33.0134H64.9999V27.8906Z" fill="#FFB547"/>
<path opacity="0.2" d="M4.30587 57.7769C3.61829 57.7769 3.06097 57.2196 3.06097 56.532V22.7676H1.93185C0.864932 22.7675 0 23.6324 0 24.6993V58.9746C0 59.6621 0.557451 60.2195 1.2449 60.2195H63.755C64.4425 60.2195 64.9999 59.6621 64.9999 58.9746V57.7769H4.30587Z" fill="black"/>
<path d="M18.7445 60.2194C18.7445 56.1328 15.4316 52.8198 11.345 52.8198C7.2584 52.8198 3.94543 56.1328 3.94543 60.2194H18.7445Z" fill="#77E0C1"/>
<g opacity="0.1">
<path d="M18.6622 59.1167H6.63164C6.17372 59.1167 5.81889 58.7167 5.87119 58.2618C6.09882 56.284 7.1067 54.5443 8.57872 53.3564C5.86281 54.4522 3.94531 57.1111 3.94531 60.2194H18.7442C18.7445 59.8446 18.7161 59.4766 18.6622 59.1167Z" fill="black"/>
</g>
<path d="M46.2555 60.2194C46.2555 56.1328 49.5685 52.8198 53.655 52.8198C57.7416 52.8198 61.0545 56.1328 61.0545 60.2194H46.2555Z" fill="#77E0C1"/>
<g opacity="0.1">
<path d="M60.9724 59.1167H48.9418C48.4839 59.1167 48.1291 58.7167 48.1814 58.2618C48.409 56.284 49.4169 54.5443 50.8889 53.3564C48.173 54.4522 46.2555 57.1111 46.2555 60.2194H61.0544C61.0545 59.8446 61.0261 59.4766 60.9724 59.1167Z" fill="black"/>
</g>
<path d="M44.9022 39.8862H20.0978C19.4276 39.8862 18.8844 40.4296 18.8844 41.0996V43.2174C18.8844 43.8875 19.4278 44.4308 20.0978 44.4308H44.9022C45.5724 44.4308 46.1156 43.8874 46.1156 43.2174V41.0996C46.1157 40.4295 45.5724 39.8862 44.9022 39.8862Z" fill="white"/>
<path opacity="0.2" d="M21.4859 43.2516C20.8157 43.2516 20.2725 42.7083 20.2725 42.0382V39.9205C20.2725 39.909 20.2739 39.8977 20.2742 39.8862H20.0976C19.4274 39.8862 18.8842 40.4296 18.8842 41.0996V43.2174C18.8842 43.8875 19.4275 44.4308 20.0976 44.4308H44.9021C45.5606 44.4308 46.0955 43.9057 46.1138 43.2516H21.4859Z" fill="black"/>
<path d="M42.8861 44.4302H40.7879V60.2186H42.8861V44.4302Z" fill="#333E48"/>
<path d="M24.2119 44.4302H22.1137V60.2186H24.2119V44.4302Z" fill="#333E48"/>
<g opacity="0.2">
<path d="M17.3471 36.0723H13.0858V38.1704H17.3471V36.0723Z" fill="black"/>
<path d="M8.3727 42.2031H4.11139V44.3013H8.3727V42.2031Z" fill="black"/>
<path d="M15.6533 46.9341H11.3919V49.0322H15.6533V46.9341Z" fill="black"/>
<path d="M54.3302 35.4834H50.0689V37.5816H54.3302V35.4834Z" fill="black"/>
<path d="M37.6916 34.9028H33.4302V37.001H37.6916V34.9028Z" fill="black"/>
<path d="M51.9048 46.9341H47.6435V49.0322H51.9048V46.9341Z" fill="black"/>
<path d="M61.0543 42.4131H56.793V44.5112H61.0543V42.4131Z" fill="black"/>
</g>
</svg>
